<svg width="214" height="40" fill="none" xmlns="http://www.w3.org/2000/svg">
  <g clip-path="url(#a)">
    <path d="m7.783 24.943-5.546-1.487-2.024-.543a20.077 20.077 0 0 1 .17-6.823L2 18.033l5.783 6.91Z" fill="#20E0B7"/>
    <path d="m9.157 28.6-4.37 4.367a20.066 20.066 0 0 1-3.73-6.537l2.276.604L9.157 28.6ZM13.57 38.943a20.066 20.066 0 0 1-6.537-3.73l1.334-1.333 3.02-3.02 1.576 5.806.607 2.277Z" fill="#03DAC5"/>
    <path d="M23.907 39.617a20.057 20.057 0 0 1-6.82.17l-.544-2.023-1.486-5.547L21.967 38l1.94 1.617Z" fill="#20E0B7"/>
    <path d="M33.176 35.033a19.93 19.93 0 0 1-5.626 3.487l-1.667-1.403-7.123-5.947 12.146 3.257 2.27.606Z" fill="#3DE6AA"/>
    <path d="M38.927 26.47a19.998 19.998 0 0 1-3.26 5.947l-2.027-.544-12.81-3.436L36.81 26.7l2.117-.23Z" fill="#5AED9C"/>
    <path d="M40 20a19.673 19.673 0 0 1-.257 3.187l-1.97.216-16.627 1.807L37.86 17.1l1.78-.867A19.71 19.71 0 0 1 40 20Z" fill="#94F981"/>
    <path d="m38.78 13.12-1.722.837-17.04 8.273L33.864 8.383l1.354-1.333a20.02 20.02 0 0 1 3.563 6.07ZM32.966 4.784l-1.35 1.353L17.77 19.98l8.273-17.036.837-1.724a20.02 20.02 0 0 1 6.086 3.564Z" fill="#B1FF73"/>
    <path d="m23.766.36-.867 1.78-8.11 16.71 1.807-16.623.216-1.97a19.896 19.896 0 0 1 6.954.103Z" fill="#94F981"/>
    <path d="M13.53 1.073 13.3 3.19l-1.736 15.98L8.127 6.357l-.543-2.024a20 20 0 0 1 5.947-3.26Z" fill="#5AED9C"/>
    <path d="M8.83 21.243 2.884 14.13 1.48 12.463a19.93 19.93 0 0 1 3.487-5.64l.607 2.27 3.256 12.15Z" fill="#3DE6AA"/>
    <path d="m48.334 30.479 4-22.704h.52a4.58 4.58 0 0 1 4.415 3.393c.172.645.202 1.32.085 1.977l-2.186 12.404h8.31l-.87 4.93H48.334ZM69.408 30.882c-1.9 0-3.24-.444-4.02-1.333-.78-.892-1-2.281-.667-4.157.235-1.332.669-2.361 1.3-3.087a5.06 5.06 0 0 1 2.46-1.51 15.757 15.757 0 0 1 3.547-.535l3.423-.234.13-.739c.1-.556 0-.95-.313-1.172a2.378 2.378 0 0 0-1.397-.333c-.667 0-1.43.023-2.29.07-.86.046-1.697.101-2.51.166-.817.067-1.53.133-2.147.2l.397-2.948a1.522 1.522 0 0 1 1.243-1.3l1.207-.212a40.56 40.56 0 0 1 2.767-.383c.885-.099 1.775-.15 2.666-.153 1.279-.03 2.554.14 3.78.502a3.546 3.546 0 0 1 2.174 1.746c.422.826.502 1.988.24 3.487l-1.253 7.108a.735.735 0 0 0 .363.503c.215.135.456.226.707.267l-.547 2.674a1.526 1.526 0 0 1-1.393 1.216c-.187 0-.374.027-.567.037a7.721 7.721 0 0 1-1.403 0 3.408 3.408 0 0 1-1.607-.383 2.79 2.79 0 0 1-.854-.69c-.36.157-.84.333-1.43.52-.633.2-1.277.363-1.93.486-.684.13-1.38.192-2.076.187Zm2.193-4.094c.337 0 .672-.04 1-.116a9.623 9.623 0 0 0 1.773-.587l.487-2.748-2.487.233a2.098 2.098 0 0 0-1.276.487 1.979 1.979 0 0 0-.59 1.156c-.101.39-.054.802.133 1.159a1.04 1.04 0 0 0 .96.416ZM89.308 30.882c-.904 0-1.807-.046-2.707-.137a27.964 27.964 0 0 1-2.423-.333l-.2-.033a1.532 1.532 0 0 1-1.237-1.829l.557-2.548 1.95.233c.733.091 1.458.165 2.173.22.717.057 1.31.083 1.78.083.427.007.854-.026 1.274-.1a1.55 1.55 0 0 0 .787-.37c.192-.189.317-.435.356-.702a.596.596 0 0 0-.15-.573 2.118 2.118 0 0 0-.856-.366 16.835 16.835 0 0 0-1.917-.334 9.701 9.701 0 0 1-2.924-.799 2.818 2.818 0 0 1-1.46-1.592c-.246-.693-.27-1.609-.07-2.748.263-1.499.78-2.662 1.554-3.488a6.241 6.241 0 0 1 2.837-1.745 12.68 12.68 0 0 1 3.623-.503c.889 0 1.77.039 2.643.117.874.077 1.672.178 2.394.303l.203.033a1.522 1.522 0 0 1 1.233 1.825l-.58 2.685c-.566-.067-1.226-.14-1.97-.216a59.828 59.828 0 0 0-2.18-.187 27.734 27.734 0 0 0-1.796-.067c-.36-.004-.72.03-1.074.1-.27.054-.524.168-.743.333a.972.972 0 0 0-.333.62.552.552 0 0 0 .13.503c.226.187.499.31.79.353.406.1 1.013.211 1.82.333 1.083.108 2.143.39 3.136.836a2.788 2.788 0 0 1 1.49 1.629c.234.703.247 1.649.037 2.831-.367 2.079-1.239 3.543-2.617 4.394-1.377.85-3.22 1.263-5.53 1.239ZM106.336 30.882c-1.967 0-3.477-.308-4.53-.923a4.15 4.15 0 0 1-2-2.835c-.278-1.272-.246-2.882.097-4.83.266-1.783.866-3.5 1.766-5.062a8.06 8.06 0 0 1 3.23-3.018 10.458 10.458 0 0 1 4.767-1c2.667 0 4.561.627 5.684 1.88 1.122 1.252 1.451 3.228.986 5.928l-.763 2.818h-10.144c-.135.888-.052 1.555.25 1.999.304.433.924.666 1.864.666.713 0 1.516 0 2.403-.05s1.777-.073 2.667-.12c.89-.047 1.643-.087 2.253-.133l-.39 2.754a1.518 1.518 0 0 1-1.263 1.293l-1.17.18c-.916.133-1.873.244-2.874.333-1 .089-1.944.128-2.833.12Zm-.333-10.43h4.667c.2-1.142.163-1.938-.114-2.398-.276-.46-.816-.686-1.623-.686a2.562 2.562 0 0 0-1.934.72c-.457.48-.79 1.268-.996 2.365ZM117.127 30.479l2.97-16.868h5.73l-.333 1.812c.41-.29.893-.6 1.453-.923a14.317 14.317 0 0 1 1.757-.866 6.736 6.736 0 0 1 1.667-.47l-.974 5.467a8.312 8.312 0 0 0-1.6.333c-.589.18-1.154.38-1.696.603-.544.223-1.02.426-1.43.602l-1.15 6.516a4.567 4.567 0 0 1-4.501 3.78l-1.893.014ZM140.294 30.882a29.047 29.047 0 0 1-3.07-.17 40.263 40.263 0 0 1-3.024-.42c-.29-.05-.563-.097-.823-.147a1.519 1.519 0 0 1-1.001-.668 1.52 1.52 0 0 1-.202-1.187l.736-3.044c.704.07 1.52.156 2.45.27.931.113 1.867.206 2.814.283.947.076 1.777.12 2.493.12 1.027 0 1.789-.174 2.287-.52a2.33 2.33 0 0 0 .933-1.596c.08-.319.045-.656-.1-.952a1.666 1.666 0 0 0-.916-.606 13.438 13.438 0 0 0-2.074-.487 17.05 17.05 0 0 1-4.366-1.272 3.832 3.832 0 0 1-2.067-2.165c-.327-.926-.357-2.148-.09-3.664.34-1.92.943-3.408 1.81-4.46a6.882 6.882 0 0 1 3.287-2.225 14.94 14.94 0 0 1 4.57-.636c.804 0 1.707.044 2.707.133 1 .089 1.976.189 2.93.3.286.033.56.07.823.106a1.53 1.53 0 0 1 1.043.647 1.526 1.526 0 0 1 .227 1.205l-.703 3.114a178.938 178.938 0 0 0-5.027-.436 33.259 33.259 0 0 0-2.397-.103 4.888 4.888 0 0 0-2.207.403 1.733 1.733 0 0 0-.9 1.309c-.092.354-.052.73.114 1.056.233.312.566.536.943.636.473.17 1.16.363 2.057.586a29.49 29.49 0 0 1 3.453.973c.794.26 1.524.683 2.144 1.242.514.513.85 1.177.956 1.896.124.989.083 1.992-.12 2.967-.324 1.832-.907 3.301-1.75 4.407a6.996 6.996 0 0 1-3.267 2.382 13.852 13.852 0 0 1-4.673.723ZM152.697 30.479l.21-13.867a3.046 3.046 0 0 1 3.047-2.998h3.267l-.714 12.038h.434l3.96-11.635h5.363l.027 11.635h.437l3.527-12.038h1.536a3.05 3.05 0 0 1 2.897 3.997l-4.187 12.867h-8.447l.037-9.326-3.253 9.326h-8.141ZM182.005 30.882c-1.895 0-3.229-.444-4-1.333-.783-.892-1-2.281-.666-4.157.235-1.332.667-2.361 1.296-3.087a5.086 5.086 0 0 1 2.464-1.51 15.752 15.752 0 0 1 3.543-.535l3.427-.234.13-.739c.097-.556 0-.95-.313-1.172a2.378 2.378 0 0 0-1.397-.333c-.667 0-1.43.023-2.29.07-.86.043-1.694.1-2.51.166-.817.067-1.534.133-2.147.2l.393-2.931a1.518 1.518 0 0 1 1.2-1.29 39.743 39.743 0 0 1 4.017-.623c.886-.098 1.776-.149 2.667-.152 1.278-.03 2.554.14 3.78.502a3.547 3.547 0 0 1 2.173 1.746c.423.826.503 1.988.24 3.487l-1.253 7.108a.729.729 0 0 0 .363.503c.216.136.456.226.707.267l-.543 2.688a1.534 1.534 0 0 1-1.394 1.216c-.186 0-.376.026-.566.036a7.728 7.728 0 0 1-1.404 0 3.438 3.438 0 0 1-1.61-.383 2.818 2.818 0 0 1-.85-.69 17.58 17.58 0 0 1-1.43.52c-.633.2-1.277.363-1.93.487-.691.126-1.394.184-2.097.173Zm2.197-4.094a4.4 4.4 0 0 0 1-.116 9.644 9.644 0 0 0 1.774-.587l.483-2.748-2.487.233a2.087 2.087 0 0 0-1.273.487 1.979 1.979 0 0 0-.59 1.156c-.1.389-.054.801.13 1.159a1.044 1.044 0 0 0 .97.416h-.007ZM195.093 31.954l3.247-18.343h5.667l-.104.973c.376-.228.765-.434 1.164-.617a8.977 8.977 0 0 1 1.517-.536 6.084 6.084 0 0 1 1.563-.22c2.324 0 3.846.75 4.563 2.249.718 1.499.817 3.7.297 6.602a16.408 16.408 0 0 1-1.6 4.996 6.912 6.912 0 0 1-2.823 2.898c-1.185.626-2.669.94-4.454.94a9.36 9.36 0 0 1-1.617-.154l-1.43-.25-1.206 6.842h-.284a4.58 4.58 0 0 1-4.418-3.4 4.563 4.563 0 0 1-.082-1.98Zm8.73-5.799a2.718 2.718 0 0 0 1.697-.503 3.46 3.46 0 0 0 1.06-1.459c.299-.738.514-1.508.64-2.295.267-1.522.257-2.561-.036-3.12-.294-.56-.82-.837-1.577-.837a3.73 3.73 0 0 0-.79.1c-.304.067-.597.147-.88.233-.284.087-.534.18-.75.27l-1.31 7.445.836.1a8.64 8.64 0 0 0 1.11.063v.003Z" fill="#fff"/>
  </g>
  <defs>
    <clipPath id="a">
      <path fill="#fff" d="M0 0h213.333v40H0z"/>
    </clipPath>
  </defs>
</svg>
