<svg width="40" height="40" fill="none" xmlns="http://www.w3.org/2000/svg">
  <path d="m7.783 24.943-5.546-1.487-2.024-.543a20.077 20.077 0 0 1 .17-6.823L2 18.033l5.783 6.91Z" fill="#20E0B7"/>
  <path d="m9.157 28.6-4.37 4.367a20.066 20.066 0 0 1-3.73-6.537l2.276.604L9.157 28.6ZM13.57 38.943a20.066 20.066 0 0 1-6.537-3.73l1.334-1.333 3.02-3.02 1.576 5.806.607 2.277Z" fill="#03DAC5"/>
  <path d="M23.907 39.617a20.057 20.057 0 0 1-6.82.17l-.544-2.023-1.486-5.547L21.967 38l1.94 1.617Z" fill="#20E0B7"/>
  <path d="M33.176 35.033a19.93 19.93 0 0 1-5.626 3.487l-1.667-1.403-7.123-5.947 12.146 3.257 2.27.606Z" fill="#3DE6AA"/>
  <path d="M38.927 26.47a19.998 19.998 0 0 1-3.26 5.947l-2.027-.544-12.81-3.436L36.81 26.7l2.117-.23Z" fill="#5AED9C"/>
  <path d="M40 20a19.673 19.673 0 0 1-.257 3.187l-1.97.216-16.627 1.807L37.86 17.1l1.78-.867A19.71 19.71 0 0 1 40 20Z" fill="#94F981"/>
  <path d="m38.78 13.12-1.722.837-17.04 8.273L33.864 8.383l1.354-1.333a20.02 20.02 0 0 1 3.563 6.07ZM32.966 4.784l-1.35 1.353L17.77 19.98l8.273-17.036.837-1.724a20.02 20.02 0 0 1 6.086 3.564Z" fill="#B1FF73"/>
  <path d="m23.766.36-.867 1.78-8.11 16.71 1.807-16.623.216-1.97a19.896 19.896 0 0 1 6.954.103Z" fill="#94F981"/>
  <path d="M13.53 1.073 13.3 3.19l-1.736 15.98L8.127 6.357l-.543-2.024a20 20 0 0 1 5.947-3.26Z" fill="#5AED9C"/>
  <path d="M8.83 21.243 2.884 14.13 1.48 12.463a19.93 19.93 0 0 1 3.487-5.64l.607 2.27 3.256 12.15Z" fill="#3DE6AA"/>
</svg>
